#!OML:ASF H:\MichaelJackson\Top Level 1\Subject 1\Session 1\male.ASF
:FULLY-SPECIFIED
:DEGREES
528
root -5.71696 17.1173 25.6506 -361.506 18.2367 -11.7505
lowerback 1.65735 1.82875 -1.80743
upperback 1.02147 2.41418 -0.0453281
thorax 0.0452044 1.2002 0.925623
lowerneck -10.5097 -7.05328 -0.751332
upperneck 17.1001 -10.9584 7.62389
head 7.47138 -4.62267 1.52797
rclavicle 3.75703e-014 -1.43125e-014
rhumerus -41.202 -1.40195 -85.9829
rradius 37.0063
rwrist 4.65405
rhand -26.449 -29.3756
rfingers 7.12502
rthumb 0.112062 -59.3553
lclavicle 3.75703e-014 -1.43125e-014
lhumerus -54.9967 -2.03311 91.3846
lradius 57.2404
lwrist 22.143
lhand -17.2601 15.4938
lfingers 7.12502
lthumb 8.98438 45.2825
rfemur -18.0247 -12.9537 24.2308
rtibia 27.6641
rfoot 2.95057 -12.3737
rtoes -7.11732
lfemur -24.7203 4.38869 -1.09924
ltibia 67.9109
lfoot -1.60022 23.782
ltoes 45.0236
529
root -5.75438 17.1333 25.7382 -361.305 16.7444 -11.6696
lowerback 1.56626 2.00111 -1.4403
upperback 0.91295 2.64934 -0.0147167
thorax -0.00687462 1.32001 0.748732
lowerneck -10.4911 -6.80654 -0.533548
upperneck 17.2112 -10.6145 7.35577
head 7.46089 -4.46505 1.44375
rclavicle -3.77691e-014 -1.59028e-015
rhumerus -41.0815 -2.84939 -85.3084
rradius 37.2267
rwrist 4.35103
rhand -25.8132 -28.9048
rfingers 7.12502
rthumb 0.726192 -58.8833
lclavicle -3.77691e-014 -1.59028e-015
lhumerus -54.7854 -2.06011 91.441
lradius 58.1136
lwrist 21.6368
lhand -15.1196 15.8861
lfingers 7.12502
lthumb 11.0494 45.5752
rfemur -18.0843 -12.8877 24.5964
rtibia 27.6899
rfoot 2.68652 -11.291
rtoes -6.93626
lfemur -25.3273 4.46599 -2.3469
ltibia 68.6938
lfoot -2.2231 22.889
ltoes 44.1734
530
root -5.79044 17.1466 25.826 -361.093 15.2599 -11.5643
lowerback 1.47087 2.17851 -1.11947
upperback 0.798579 2.89044 0.0119349
thorax -0.061926 1.44226 0.593974
lowerneck -10.4184 -6.56177 -0.349868
upperneck 17.2692 -10.2683 7.1246
head 7.42895 -4.30884 1.37878
rclavicle 5.12864e-014 0
rhumerus -41.0587 -4.42648 -84.5266
rradius 37.6422
rwrist 3.89814
rhand -25.2045 -28.3621
rfingers 7.12502
rthumb 1.31402 -58.3378
lclavicle 5.12864e-014 0
lhumerus -54.6031 -1.98317 91.2764
lradius 59.0945
lwrist 20.9329
lhand -12.3402 15.8307
lfingers 7.12502
lthumb 13.7292 45.3578
rfemur -18.1582 -12.8389 24.9286
rtibia 27.7616
rfoot 2.37587 -10.2839
rtoes -6.65901
lfemur -25.8687 4.42275 -3.57439
ltibia 69.2559
lfoot -2.93679 21.5098
ltoes 42.7007
531
root -5.82609 17.1568 25.9133 -360.889 13.7681 -11.4417
lowerback 1.38433 2.36284 -0.843695
upperback 0.689627 3.13998 0.0361051
thorax -0.116289 1.56824 0.461831
lowerneck -10.3122 -6.32078 -0.202514
upperneck 17.2755 -9.92328 6.93211
head 7.37964 -4.15482 1.3328
rclavicle -2.0276e-014 6.36111e-015
rhumerus -41.1281 -6.06839 -83.6715
rradius 38.2288
rwrist 3.32685
rhand -24.6709 -27.7923
rfingers 7.12502
rthumb 1.82944 -57.7642
lclavicle -2.0276e-014 6.36111e-015
lhumerus -54.4766 -1.82317 90.9062
lradius 60.1815
lwrist 20.0503
lhand -9.17864 15.2575
lfingers 7.12502
lthumb 16.7745 44.5529
rfemur -18.23 -12.7686 25.2393
rtibia 27.8766
rfoot 2.02557 -9.41107
rtoes -6.25417
lfemur -26.3191 4.27901 -4.75337
ltibia 69.5857
lfoot -3.8111 19.6361
ltoes 40.5319
532
root -5.86188 17.164 26 -360.701 12.2637 -11.2954
lowerback 1.31293 2.55297 -0.62113
upperback 0.594759 3.3964 0.0548767
thorax -0.16537 1.69721 0.353755
lowerneck -10.1949 -6.08402 -0.0719855
upperneck 17.2437 -9.58166 6.75932
head 7.3192 -4.00328 1.29544
rclavicle 3.37934e-014 -2.22639e-014
rhumerus -41.2856 -7.71157 -82.7759
rradius 38.9689
rwrist 2.66179
rhand -24.2404 -27.2135
rfingers 7.12502
rthumb 2.24516 -57.1814
lclavicle 3.37934e-014 -2.22639e-014
lhumerus -54.4255 -1.62328 90.3588
lradius 61.3524
lwrist 19.0367
lhand -5.9608 14.1372
lfingers 7.12502
lthumb 19.87 43.1414
rfemur -18.2848 -12.6559 25.5234
rtibia 28.0312
rfoot 1.63898 -8.70647
rtoes -5.73579
lfemur -26.6647 4.04716 -5.87844
ltibia 69.677
lfoot -4.92936 17.332
ltoes 37.6843
533
root -5.89829 17.168 26.0857 -360.538 10.7509 -11.1386
lowerback 1.2583 2.74473 -0.434765
upperback 0.516997 3.65443 0.0672953
thorax -0.206391 1.82667 0.259297
lowerneck -10.0847 -5.85377 0.0434938
upperneck 17.1897 -9.24802 6.60161
head 7.25574 -3.8556 1.26376
rclavicle 1.14301e-014 -7.95139e-015
rhumerus -41.5193 -9.29766 -81.8735
rradius 39.8213
rwrist 1.93859
rhand -23.9166 -26.6449
rfingers 7.12502
rthumb 2.55795 -56.6093
lclavicle 1.14301e-014 -7.95139e-015
lhumerus -54.4628 -1.44005 89.6676
lradius 62.585
lwrist 17.9732
lhand -3.12135 12.5485
lfingers 7.12502
lthumb 22.5975 41.2458
rfemur -18.3186 -12.4889 25.7977
rtibia 28.2217
rfoot 1.22436 -8.19902
rtoes -5.02353
lfemur -26.9115 3.74731 -6.92764
ltibia 69.5344
lfoot -6.30725 14.7244
ltoes 34.25
534
root -5.9353 17.1687 26.1699 -360.396 9.23681 -10.9762
lowerback 1.22079 2.93354 -0.269271
upperback 0.452876 3.90817 0.0696826
thorax -0.242159 1.95379 0.166054
lowerneck -9.98797 -5.62702 0.162794
upperneck 17.1277 -8.91893 6.43838
head 7.19285 -3.71006 1.22825
rclavicle -2.23633e-014 1.11319e-014
rhumerus -41.8268 -10.7764 -80.9925
rradius 40.7595
rwrist 1.19441
rhand -23.7178 -26.0933
rfingers 7.12502
rthumb 2.74994 -56.0553
lclavicle -2.23633e-014 1.11319e-014
lhumerus -54.5903 -1.32843 88.8695
lradius 63.8542
lwrist 16.9573
lhand -1.11729 10.6713
lfingers 7.12502
lthumb 24.5198 39.1215
rfemur -18.337 -12.2748 26.0704
rtibia 28.4472
rfoot 0.786221 -7.89497
rtoes -4.15994
lfemur -27.0801 3.40042 -7.89545
ltibia 69.1719
lfoot -7.8862 11.9941
ltoes 30.3879
535
root -5.97258 17.1661 26.2524 -360.267 7.73399 -10.8057
lowerback 1.19173 3.11255 -0.117671
upperback 0.40263 4.14859 0.0597343
thorax -0.267089 2.0741 0.068378
lowerneck -9.91721 -5.39763 0.297327
upperneck 17.0704 -8.5863 6.25407
head 7.13544 -3.56265 1.18249
rclavicle 4.68138e-014 1.43125e-014
rhumerus -42.1896 -12.0964 -80.1529
rradius 41.7461
rwrist 0.483369
rhand -23.5903 -25.6365
rfingers 7.12502
rthumb 2.87306 -55.5969
lclavicle 4.68138e-014 1.43125e-014
lhumerus -54.7848 -1.31369 87.9825
lradius 65.1292
lwrist 16.0712
lhand -0.232207 8.70056
lfingers 7.12502
lthumb 25.3679 37.0331
rfemur -18.3562 -12.0343 26.341
rtibia 28.7127
rfoot 0.325668 -7.78516
rtoes -3.13286
lfemur -27.2005 3.02419 -8.79097
ltibia 68.613
lfoot -9.5451 9.34192
ltoes 26.3698
536
root -6.00971 17.1601 26.3328 -360.136 6.25054 -10.6318
lowerback 1.16607 3.27742 0.0372955
upperback 0.355944 4.37013 0.0350945
thorax -0.287555 2.18487 -0.0456714
lowerneck -9.89707 -5.1657 0.459161
upperneck 17.049 -8.25091 6.02454
head 7.09658 -3.41347 1.1159
rclavicle 2.46493e-014 7.95139e-015
rhumerus -42.6048 -13.2156 -79.3751
rradius 42.7662
rwrist -0.202589
rhand -23.5622 -25.2624
rfingers 7.12502
rthumb 2.90013 -55.2224
lclavicle 2.46493e-014 7.95139e-015
lhumerus -55.0204 -1.39446 87.0061
lradius 66.3748
lwrist 15.3504
lhand -0.533404 6.85118
lfingers 7.12502
lthumb 25.0794 35.2244
rfemur -18.4039 -11.7931 26.6181
rtibia 29.0248
rfoot -0.166022 -7.84339
rtoes -2.02643
lfemur -27.3093 2.64573 -9.6166
ltibia 67.8894
lfoot -11.1413 6.94403
ltoes 22.5299
537
root -6.04631 17.1505 26.4106 -359.988 4.78602 -10.446
lowerback 1.14053 3.42882 0.193343
upperback 0.308301 4.5736 -0.00672244
thorax -0.306294 2.28652 -0.177326
lowerneck -9.88422 -4.92007 0.631477
upperneck 17.0269 -7.89539 5.77587
head 7.05836 -3.25536 1.04278
rclavicle -5.59579e-014 -2.8625e-014
rhumerus -43.0588 -14.0932 -78.6673
rradius 43.8014
rwrist -0.820317
rhand -23.6236 -25.0204
rfingers 7.12502
rthumb 2.84083 -54.9813
lclavicle -5.59579e-014 -2.8625e-014
lhumerus -55.266 -1.5498 85.9286
lradius 67.5696
lwrist 14.8015
lhand -1.89608 5.24959
lfingers 7.12502
lthumb 23.7731 33.7989
rfemur -18.5009 -11.5697 26.8931
rtibia 29.3901
rfoot -0.693253 -8.02833
rtoes -0.917294
lfemur -27.4335 2.30162 -10.3887
ltibia 67.0338
lfoot -12.5507 4.9472
ltoes 19.1188
538
root -6.08207 17.1377 26.4851 -359.814 3.33247 -10.2442
lowerback 1.11207 3.56827 0.342817
upperback 0.257766 4.76098 -0.0618977
thorax -0.324502 2.38002 -0.318377
lowerneck -9.88977 -4.66012 0.813446
upperneck 17.0078 -7.51774 5.49901
head 7.02389 -3.08782 0.96022
rclavicle -6.07287e-014 2.22639e-014
rhumerus -43.5301 -14.6907 -78.0369
rradius 44.8375
rwrist -1.33696
rhand -23.7887 -24.8936
rfingers 7.12502
rthumb 2.68144 -54.8565
lclavicle -6.07287e-014 2.22639e-014
lhumerus -55.4826 -1.73533 84.7356
lradius 68.6885
lwrist 14.4123
lhand -4.12183 3.89514
lfingers 7.12502
lthumb 21.637 32.7062
rfemur -18.6647 -11.3742 27.1609
rtibia 29.8076
rfoot -1.24781 -8.28721
rtoes 0.233345
lfemur -27.5933 2.02483 -11.1159
ltibia 66.0755
lfoot -13.7231 3.45066
ltoes 16.386
539
root -6.11664 17.122 26.5562 -359.611 1.88143 -10.0169
lowerback 1.08264 3.69925 0.475166
upperback 0.20668 4.93676 -0.131409
thorax -0.341736 2.46764 -0.464109
lowerneck -9.91349 -4.38481 0.998193
upperneck 16.9811 -7.11704 5.20619
head 6.99074 -2.91015 0.873448
rclavicle -9.54166e-015 5.24792e-014
rhumerus -44.0004 -14.9909 -77.49
rradius 45.8655
rwrist -1.71509
rhand -24.0366 -24.9077
rfingers 7.12502
rthumb 2.44205 -54.8734
lclavicle -9.54166e-015 5.24792e-014
lhumerus -55.6364 -1.90312 83.4014
lradius 69.7033
lwrist 14.1296
lhand -6.91834 2.70377
lfingers 7.12502
lthumb 18.9494 31.8007
rfemur -18.8937 -11.211 27.4032
rtibia 30.2691
rfoot -1.82782 -8.547
rtoes 1.33333
lfemur -27.7868 1.84087 -11.8143
ltibia 65.0374
lfoot -14.6697 2.49005
ltoes 14.4168
